<?xml version="1.0" encoding="utf-8"?><svg viewBox="0 0 14 14" xmlns="http://www.w3.org/2000/svg" xmlns:xlink="http://www.w3.org/1999/xlink"><style>:root>svg{display:none}:root>svg:target{display:block}</style><svg fill="none" viewBox="0 0 6 13" id="facebook" xmlns="http://www.w3.org/2000/svg"><path d="M4.905 2.054H6V.087A13.726 13.726 0 004.404 0c-1.58 0-2.661 1.024-2.661 2.906V4.64H0v2.198h1.743v5.533H3.88V6.838h1.672l.266-2.199H3.879V3.124c0-.635.167-1.07 1.026-1.07z" fill="#fff"/></svg><svg fill="none" viewBox="0 0 12 12" id="instagram" xmlns="http://www.w3.org/2000/svg"><g clip-path="url(#bclip0_1_149)" fill="#fff"><path d="M10 0H2a2 2 0 00-2 2v8a2 2 0 002 2h8a2 2 0 002-2V2a2 2 0 00-2-2zm1 10a1 1 0 01-1 1H2a1 1 0 01-1-1V2a1 1 0 011-1h8a1 1 0 011 1v8z"/><path d="M6 3a3 3 0 100 6 3 3 0 000-6zm0 5a2 2 0 110-4 2 2 0 010 4zM9.25 3.5a.75.75 0 100-1.5.75.75 0 000 1.5z"/></g><defs><clipPath id="bclip0_1_149"><path fill="#fff" d="M0 0h12v12H0z"/></clipPath></defs></svg><svg fill="none" viewBox="0 0 12 13" id="linkedin" xmlns="http://www.w3.org/2000/svg"><path d="M11.995 12.369h.003V7.831c0-2.22-.463-3.929-2.98-3.929-1.21 0-2.022.685-2.353 1.334H6.63V4.11H4.244v8.258h2.484V8.28c0-1.076.198-2.117 1.492-2.117 1.274 0 1.293 1.228 1.293 2.186v4.02h2.482zM.199 4.111h2.487v8.258H.2V4.11zM1.44 0C.646 0 0 .665 0 1.485c0 .82.645 1.5 1.44 1.5.796 0 1.442-.68 1.442-1.5C2.88.665 2.236 0 1.44 0z" fill="#fff"/></svg><svg fill="none" viewBox="0 0 14 14" id="twitter" xmlns="http://www.w3.org/2000/svg"><g clip-path="url(#dclip0_1_138)"><path d="M14 2.66c-.52.228-1.075.379-1.654.452a2.854 2.854 0 001.263-1.586 5.737 5.737 0 01-1.82.695 2.87 2.87 0 00-4.965 1.963c0 .227.02.446.067.654A8.124 8.124 0 01.975 1.836a2.874 2.874 0 00.882 3.836A2.834 2.834 0 01.56 5.318v.032c0 1.395.995 2.553 2.3 2.82a2.865 2.865 0 01-.753.094c-.184 0-.37-.01-.543-.049a2.898 2.898 0 002.681 2 5.767 5.767 0 01-3.558 1.224c-.236 0-.461-.01-.687-.04a8.08 8.08 0 004.403 1.289c5.282 0 8.169-4.376 8.169-8.168 0-.127-.004-.25-.01-.37A5.727 5.727 0 0014 2.66z" fill="#fff"/></g><defs><clipPath id="dclip0_1_138"><path fill="#fff" d="M0 0h14v14H0z"/></clipPath></defs></svg><svg fill="none" viewBox="0 0 14 10" id="youtube" xmlns="http://www.w3.org/2000/svg"><path d="M11.63 0H2.37C1.74 0 1.137.258.693.716A2.484 2.484 0 000 2.444v5.112c0 .648.25 1.27.694 1.728A2.333 2.333 0 002.369 10h9.262c.628 0 1.23-.258 1.675-.716.444-.458.694-1.08.694-1.728V2.444c0-.648-.25-1.27-.694-1.728A2.333 2.333 0 0011.631 0zM9.743 5.098l-4.2 2.222a.105.105 0 01-.143-.044.114.114 0 01-.014-.054V2.778a.114.114 0 01.052-.095.105.105 0 01.105-.003l4.2 2.222a.11.11 0 01.043.041.114.114 0 01-.043.157v-.002z" fill="#fff"/></svg></svg>